<svg width="116" height="35" viewBox="0 0 116 35" fill="none" xmlns="http://www.w3.org/2000/svg">
<path d="M14.358 20.0251H5.71039L5.66427 14.7212H12.6746C13.9353 14.7212 14.9422 14.5828 15.6956 14.3061C16.4489 14.014 16.9946 13.5912 17.3328 13.0378C17.6864 12.4843 17.8632 11.7925 17.8632 10.9624C17.8632 10.0092 17.6864 9.24051 17.3328 8.65631C16.9792 8.07212 16.4181 7.64934 15.6494 7.38799C14.8961 7.11126 13.9199 6.9729 12.7208 6.9729H8.75437V34.2995H0.660156V0.723527H12.7208C14.7962 0.723527 16.6487 0.915697 18.2783 1.30004C19.9079 1.669 21.2916 2.23783 22.4292 3.00651C23.5822 3.77519 24.4585 4.74373 25.0581 5.91212C25.6577 7.06514 25.9574 8.42571 25.9574 9.99382C25.9574 11.3621 25.6653 12.6458 25.0811 13.8449C24.497 15.0441 23.5207 16.0203 22.1525 16.7736C20.7996 17.5115 18.9471 17.8959 16.5949 17.9266L14.358 20.0251ZM14.0352 34.2995H3.75025L6.5175 28.0732H14.0352C15.1421 28.0732 16.0261 27.9041 16.6872 27.5659C17.3636 27.2123 17.8479 26.7511 18.14 26.1822C18.4474 25.598 18.6012 24.9523 18.6012 24.2452C18.6012 23.3842 18.4551 22.6386 18.163 22.0083C17.8863 21.378 17.4405 20.8937 16.8255 20.5555C16.2106 20.2019 15.3881 20.0251 14.358 20.0251H7.55522L7.60134 14.7212H15.7417L17.6326 16.8428C19.8772 16.7505 21.6528 17.0657 22.9596 17.7882C24.2817 18.5108 25.2272 19.464 25.796 20.6477C26.3648 21.8315 26.6493 23.0691 26.6493 24.3605C26.6493 26.5589 26.1727 28.396 25.2195 29.8719C24.2817 31.3478 22.875 32.4547 20.9995 33.1926C19.1239 33.9305 16.8025 34.2995 14.0352 34.2995Z" fill="#00A2FF"/>
<path d="M53.3302 28.0732V34.2995H36.3577V28.0732H53.3302ZM39.2402 0.723527V34.2995H31.146V0.723527H39.2402Z" fill="#00A2FF"/>
<path d="M83.6777 16.8428V18.2033C83.6777 20.7707 83.3164 23.0768 82.5938 25.1215C81.8867 27.1508 80.8797 28.888 79.5729 30.3331C78.2662 31.7629 76.7211 32.8621 74.9378 33.6308C73.1544 34.3841 71.1866 34.7607 69.0343 34.7607C66.8666 34.7607 64.8834 34.3841 63.0847 33.6308C61.3014 32.8621 59.7487 31.7629 58.4265 30.3331C57.1198 28.888 56.1051 27.1508 55.3825 25.1215C54.6754 23.0768 54.3218 20.7707 54.3218 18.2033V16.8428C54.3218 14.2754 54.6754 11.9693 55.3825 9.92464C56.1051 7.87995 57.1121 6.14273 58.4035 4.71298C59.7102 3.26786 61.2553 2.16865 63.0386 1.41534C64.8373 0.646659 66.8205 0.262318 68.9882 0.262318C71.1405 0.262318 73.1083 0.646659 74.8917 1.41534C76.6904 2.16865 78.2431 3.26786 79.5499 4.71298C80.8566 6.14273 81.8713 7.87995 82.5938 9.92464C83.3164 11.9693 83.6777 14.2754 83.6777 16.8428ZM75.4682 18.2033V16.7966C75.4682 15.1363 75.3221 13.6758 75.03 12.4152C74.7533 11.1392 74.3382 10.0707 73.7848 9.20976C73.2313 8.34884 72.5472 7.70315 71.7324 7.27269C70.933 6.82685 70.0182 6.60394 68.9882 6.60394C67.912 6.60394 66.9743 6.82685 66.1748 7.27269C65.3754 7.70315 64.7066 8.34884 64.1686 9.20976C63.6305 10.0707 63.2231 11.1392 62.9464 12.4152C62.685 13.6758 62.5543 15.1363 62.5543 16.7966V18.2033C62.5543 19.8483 62.685 21.3088 62.9464 22.5848C63.2231 23.8454 63.6305 24.9139 64.1686 25.7902C64.722 26.6665 65.3985 27.3276 66.1979 27.7734C67.0127 28.2192 67.9582 28.4422 69.0343 28.4422C70.0643 28.4422 70.9791 28.2192 71.7785 27.7734C72.5779 27.3276 73.2467 26.6665 73.7848 25.7902C74.3382 24.9139 74.7533 23.8454 75.03 22.5848C75.3221 21.3088 75.4682 19.8483 75.4682 18.2033Z" fill="#00A2FF"/>
<path d="M115.34 16.3585V30.1486C114.771 30.7789 113.895 31.4554 112.711 32.1779C111.542 32.8851 110.067 33.4924 108.283 33.9997C106.5 34.507 104.401 34.7607 101.988 34.7607C99.7585 34.7607 97.7369 34.4071 95.9228 33.6999C94.1087 32.9774 92.5483 31.9243 91.2415 30.5407C89.9501 29.1417 88.9508 27.4352 88.2437 25.4212C87.5518 23.3919 87.2059 21.0705 87.2059 18.457V16.5891C87.2059 13.9756 87.5595 11.6542 88.2667 9.62485C88.9739 7.59553 89.9655 5.88906 91.2415 4.50544C92.5329 3.10644 94.0472 2.04566 95.7844 1.3231C97.537 0.600538 99.4587 0.239258 101.55 0.239258C104.64 0.239258 107.153 0.731214 109.09 1.71513C111.027 2.68366 112.496 4.02885 113.495 5.7507C114.494 7.45717 115.101 9.43268 115.317 11.6772H107.545C107.391 10.5703 107.099 9.63254 106.669 8.86386C106.254 8.0798 105.654 7.48792 104.87 7.0882C104.086 6.67312 103.072 6.46557 101.826 6.46557C100.858 6.46557 99.9737 6.67312 99.1743 7.0882C98.3902 7.50329 97.7215 8.13361 97.168 8.97916C96.6146 9.80933 96.1841 10.8547 95.8767 12.1154C95.5846 13.376 95.4385 14.8519 95.4385 16.543V18.457C95.4385 20.1327 95.5769 21.6009 95.8536 22.8615C96.1457 24.1222 96.5762 25.1753 97.145 26.0208C97.7292 26.851 98.4671 27.4813 99.3588 27.9118C100.266 28.3269 101.334 28.5344 102.564 28.5344C103.425 28.5344 104.163 28.4652 104.778 28.3269C105.393 28.1731 105.9 27.9886 106.3 27.7734C106.715 27.5428 107.03 27.3276 107.245 27.1277V21.9161H101.619V16.3585H115.34Z" fill="#00A2FF"/>
</svg>
